<?xml version="1.0" encoding="iso-8859-1"?>
<!-- Uploaded to: SVG Repo, www.svgrepo.com, Generator: SVG Repo Mixer Tools -->
<svg height="800px" width="800px" version="1.1" id="Layer_1" xmlns="http://www.w3.org/2000/svg" xmlns:xlink="http://www.w3.org/1999/xlink" 
	 viewBox="0 0 512 512" xml:space="preserve">
<path style="fill:#EDEBDA;" d="M371.876,338.979l-45.903,31.779l-14.124-10.593l17.655-52.966l94.455-128.883V79.448L379.821,35.31
	L344.511,0H53.2v512h370.759V270.124L371.876,338.979z"/>
<path style="fill:#CEC9AE;" d="M344.511,79.448h79.448l-35.31-35.31L344.511,0V79.448z"/>
<path style="fill:#7383BF;" d="M309.2,388.414c-1.766,0-3.531-0.883-5.297-1.766c-4.414-2.648-5.297-7.945-2.648-12.359l9.71-14.124
	c2.648-4.414,7.945-5.297,12.359-2.648c4.414,2.648,5.297,7.945,2.648,12.359L316.262,384
	C314.497,387.531,311.849,388.414,309.2,388.414"/>
<path style="fill:#424A60;" d="M325.973,370.759l-14.124-10.593l11.476-52.083l49.434,33.545L325.973,370.759z"/>
<g>
	<polygon style="fill:#7483BF;" points="373.642,240.11 421.311,277.186 432.786,263.062 384.235,225.986 	"/>
	<polygon style="fill:#7483BF;" points="323.324,308.083 372.759,341.628 388.649,320.441 341.862,282.483 	"/>
	<polygon style="fill:#7483BF;" points="352.455,268.359 399.242,306.317 410.717,291.31 363.049,254.234 	"/>
	<path style="fill:#7483BF;" d="M454.855,217.159l-34.428-23.835c-4.414-2.648-9.71-1.766-13.241,1.766l-12.359,16.772
		l48.552,37.076l13.241-17.655C460.152,226.869,459.269,220.69,454.855,217.159z"/>
</g>
<g>
	<polygon style="fill:#424A60;" points="341.862,282.483 388.649,320.441 399.242,306.317 352.455,268.359 	"/>
	<polygon style="fill:#424A60;" points="363.049,254.234 410.717,291.31 421.311,277.186 373.642,240.11 	"/>
	<polygon style="fill:#424A60;" points="384.235,225.986 432.786,263.062 443.38,248.938 394.828,211.862 	"/>
</g>
<g>
	<path style="fill:#CEC9AE;" d="M229.752,176.552H123.821c-5.297,0-8.828-3.531-8.828-8.828s3.531-8.828,8.828-8.828h105.931
		c5.297,0,8.828,3.531,8.828,8.828S235.049,176.552,229.752,176.552"/>
	<path style="fill:#CEC9AE;" d="M229.752,282.483H123.821c-5.297,0-8.828-3.531-8.828-8.828c0-5.297,3.531-8.828,8.828-8.828
		h105.931c5.297,0,8.828,3.531,8.828,8.828C238.58,278.952,235.049,282.483,229.752,282.483"/>
	<path style="fill:#CEC9AE;" d="M229.752,388.414H123.821c-5.297,0-8.828-3.531-8.828-8.828s3.531-8.828,8.828-8.828h105.931
		c5.297,0,8.828,3.531,8.828,8.828S235.049,388.414,229.752,388.414"/>
	<path style="fill:#CEC9AE;" d="M300.373,185.379c-2.648,0-4.414-0.883-6.179-2.648l-17.655-17.655
		c-3.531-3.531-3.531-8.828,0-12.359c3.531-3.531,8.828-3.531,12.359,0l10.593,10.593l37.959-45.903
		c3.531-3.531,8.828-4.414,12.359-0.883c3.531,3.531,4.414,8.828,0.883,12.359l-44.138,52.966
		C305.669,184.497,303.021,185.379,300.373,185.379L300.373,185.379"/>
	<path style="fill:#CEC9AE;" d="M300.373,291.31c-2.648,0-4.414-0.883-6.179-2.648l-17.655-17.655
		c-3.531-3.531-3.531-8.828,0-12.359s8.828-3.531,12.359,0l10.593,10.593l37.959-45.903c3.531-3.531,8.828-4.414,12.359-0.883
		c3.531,3.531,4.414,8.828,0.883,12.359l-44.138,52.966C305.669,290.428,303.021,291.31,300.373,291.31L300.373,291.31"/>
</g>
</svg>